<svg id="Capa_1" enable-background="new 0 0 512 512" height="512" viewBox="0 0 512 512" width="512" xmlns="http://www.w3.org/2000/svg"><g><g><g><path d="m99.053-53.11h313.895v497h-313.895z" fill="#e175a5" transform="matrix(0 1 -1 0 451.39 -60.61)"/></g><g><path d="m478.236 38.443v201.144c-25.673-21.66-58.814-34.733-94.955-34.733-72.361 0-132.715 52.383-145.139 121.22h-230.642v26.264h497v-313.895z" fill="#de5791"/></g><g><path d="m207.251 206.085v-88.528c0-6.795 7.299-11.09 13.239-7.79l79.675 44.264c6.111 3.395 6.111 12.185 0 15.58l-79.675 44.264c-5.939 3.299-13.239-.996-13.239-7.79z" fill="#f5fcff"/></g></g><g><circle cx="383.28" cy="352.338" fill="#f8e883" r="121.22"/></g><g><path d="m454.023 253.898c14.333 19.909 22.78 44.338 22.78 70.742 0 66.948-54.272 121.22-121.22 121.22-26.405 0-50.834-8.447-70.743-22.78 22.007 30.569 57.896 50.477 98.44 50.477 66.948 0 121.22-54.272 121.22-121.22 0-40.543-19.908-76.432-50.477-98.439z" fill="#f5de46"/></g><g><circle cx="318.63" cy="352.338" fill="#91dafa" r="24.244"/></g><g><circle cx="421.591" cy="300.573" fill="#91dafa" r="24.244"/></g><g><circle cx="421.591" cy="404.102" fill="#91dafa" r="24.244"/></g><g><path d="m504.5 30.94h-415c-4.142 0-7.5 3.357-7.5 7.5s3.358 7.5 7.5 7.5h407.5v245.962c-8.249-15.502-19.715-29.348-33.98-40.618-3.25-2.568-7.966-2.015-10.534 1.235s-2.015 7.967 1.235 10.534c27.504 21.731 43.279 54.275 43.279 89.287 0 62.705-51.015 113.72-113.72 113.72s-113.72-51.015-113.72-113.72 51.015-113.72 113.72-113.72c14.556 0 28.713 2.707 42.079 8.045 3.847 1.536 8.21-.336 9.747-4.183s-.336-8.211-4.183-9.747c-15.143-6.049-31.172-9.115-47.643-9.115-42.496 0-80.243 20.706-103.698 52.553h-140.332v-8.849c0-4.143-3.358-7.5-7.5-7.5s-7.5 3.357-7.5 7.5v8.849h-64.434c-4.142 0-7.5 3.357-7.5 7.5s3.358 7.5 7.5 7.5h64.434v8.849c0 4.143 3.358 7.5 7.5 7.5s7.5-3.357 7.5-7.5v-8.849h130.796c-8.75 16.133-14.145 34.335-15.262 53.667h-165.284c-4.142 0-7.5 3.357-7.5 7.5s3.358 7.5 7.5 7.5h165.284c3.898 67.499 60.038 121.22 128.496 121.22 70.977 0 128.72-57.743 128.72-128.72v-313.9c0-4.142-3.358-7.5-7.5-7.5z"/><path d="m54.5 344.84h-39.5v-298.9h39.5c4.142 0 7.5-3.357 7.5-7.5s-3.358-7.5-7.5-7.5h-47c-4.142 0-7.5 3.357-7.5 7.5v313.9c0 4.143 3.358 7.5 7.5 7.5h47c4.142 0 7.5-3.357 7.5-7.5s-3.358-7.5-7.5-7.5z"/><path d="m216.158 222.519c2.732 0 5.467-.695 7.974-2.088l79.675-44.264c5.207-2.894 8.442-8.391 8.441-14.348 0-5.956-3.235-11.453-8.441-14.344l-79.675-44.265c-5.138-2.856-11.229-2.779-16.293.201-5.065 2.98-8.089 8.268-8.089 14.145v88.528c0 5.876 3.024 11.163 8.089 14.144 2.594 1.526 5.454 2.291 8.319 2.291zm-1.407-104.962c0-.535.234-.945.696-1.217.236-.139.474-.208.713-.208.229 0 .459.063.688.19l79.676 44.266c.481.268.726.682.726 1.232s-.245.966-.726 1.233l-79.675 44.265c-.468.261-.939.255-1.401-.018-.461-.271-.695-.681-.695-1.216v-88.527z"/><path d="m421.59 332.316c17.504 0 31.744-14.24 31.744-31.743 0-17.504-14.24-31.744-31.744-31.744-17.503 0-31.744 14.24-31.744 31.744 0 2.46.291 4.853.823 7.153l-47.87 24.065c-5.827-6.844-14.497-11.198-24.169-11.198-17.503 0-31.744 14.24-31.744 31.744 0 17.503 14.24 31.743 31.744 31.743 9.672 0 18.342-4.353 24.169-11.197l47.871 24.065c-.532 2.301-.823 4.693-.823 7.153 0 17.503 14.24 31.743 31.744 31.743s31.744-14.24 31.744-31.743c0-17.504-14.24-31.744-31.744-31.744-9.671 0-18.341 4.353-24.168 11.196l-47.871-24.065c.532-2.3.823-4.692.823-7.152s-.291-4.852-.822-7.152l47.872-24.065c5.825 6.845 14.494 11.197 24.165 11.197zm0 55.042c9.233 0 16.744 7.512 16.744 16.744s-7.511 16.743-16.744 16.743c-9.232 0-16.744-7.511-16.744-16.743s7.512-16.744 16.744-16.744zm-102.96-18.277c-9.232 0-16.744-7.511-16.744-16.743s7.511-16.744 16.744-16.744 16.744 7.512 16.744 16.744-7.511 16.743-16.744 16.743zm102.96-85.252c9.233 0 16.744 7.512 16.744 16.744s-7.511 16.743-16.744 16.743c-9.232 0-16.744-7.511-16.744-16.743s7.512-16.744 16.744-16.744z"/></g></g></svg>